<svg width="24" height="24" viewBox="0 0 24 24" fill="none" xmlns="http://www.w3.org/2000/svg">
<path d="M11.5303 7.53033C11.8232 7.23744 11.8232 6.76256 11.5303 6.46967C11.2374 6.17678 10.7626 6.17678 10.4697 6.46967L5.46967 11.4697C5.17678 11.7626 5.17678 12.2374 5.46967 12.5303L10.4697 17.5303C10.7626 17.8232 11.2374 17.8232 11.5303 17.5303C11.8232 17.2374 11.8232 16.7626 11.5303 16.4697L7.06066 12L11.5303 7.53033ZM16.5303 7.53033C16.8232 7.23744 16.8232 6.76256 16.5303 6.46967C16.2374 6.17678 15.7626 6.17678 15.4697 6.46967L10.4697 11.4697C10.1768 11.7626 10.1768 12.2374 10.4697 12.5303L15.4697 17.5303C15.7626 17.8232 16.2374 17.8232 16.5303 17.5303C16.8232 17.2374 16.8232 16.7626 16.5303 16.4697L12.0607 12L16.5303 7.53033Z" fill="#0C395B"/>
</svg>
