<svg width="24" height="24" viewBox="0 0 24 24" fill="none" xmlns="http://www.w3.org/2000/svg">
<path d="M8.53033 6.46967C8.23744 6.17678 7.76256 6.17678 7.46967 6.46967C7.17678 6.76256 7.17678 7.23744 7.46967 7.53033L11.9393 12L7.46967 16.4697C7.17678 16.7626 7.17678 17.2374 7.46967 17.5303C7.76256 17.8232 8.23744 17.8232 8.53033 17.5303L13.5303 12.5303C13.8232 12.2374 13.8232 11.7626 13.5303 11.4697L8.53033 6.46967ZM13.5303 6.46967C13.2374 6.17678 12.7626 6.17678 12.4697 6.46967C12.1768 6.76256 12.1768 7.23744 12.4697 7.53033L16.9393 12L12.4697 16.4697C12.1768 16.7626 12.1768 17.2374 12.4697 17.5303C12.7626 17.8232 13.2374 17.8232 13.5303 17.5303L18.5303 12.5303C18.8232 12.2374 18.8232 11.7626 18.5303 11.4697L13.5303 6.46967Z" fill="#0C395B"/>
</svg>
