<svg width="27" height="24" viewBox="0 0 27 24" fill="none" xmlns="http://www.w3.org/2000/svg">
<g clip-path="url(#clip0_17312_87730)">
<path d="M7.93242 14.0862L7.23625 16.6852L4.69176 16.739C3.93133 15.3286 3.5 13.7148 3.5 12C3.5 10.3418 3.90328 8.77801 4.61812 7.40109H4.61867L6.88398 7.8164L7.87633 10.0681C7.66863 10.6736 7.55543 11.3236 7.55543 12C7.55551 12.7341 7.68848 13.4374 7.93242 14.0862Z" fill="#FBBB00"/>
<path d="M23.3253 10.1319C23.4401 10.7368 23.5 11.3615 23.5 12C23.5 12.7159 23.4247 13.4143 23.2813 14.0879C22.7945 16.3802 21.5225 18.3819 19.7605 19.7984L19.7599 19.7978L16.9066 19.6522L16.5028 17.1313C17.672 16.4456 18.5858 15.3725 19.0671 14.0879H13.7198V10.1319H19.1451H23.3253Z" fill="#518EF8"/>
<path d="M19.7599 19.7978L19.7604 19.7984C18.0467 21.1758 15.8698 22 13.5 22C9.69177 22 6.3808 19.8714 4.69177 16.739L7.93244 14.0863C8.77693 16.3401 10.9511 17.9445 13.5 17.9445C14.5956 17.9445 15.622 17.6484 16.5027 17.1313L19.7599 19.7978Z" fill="#28B446"/>
<path d="M19.883 4.30219L16.6434 6.95437C15.7319 6.38461 14.6544 6.05547 13.5 6.05547C10.8934 6.05547 8.67859 7.73348 7.87641 10.0681L4.61871 7.40109H4.61816C6.28246 4.1923 9.6352 2 13.5 2C15.9264 2 18.1511 2.8643 19.883 4.30219Z" fill="#F14336"/>
</g>
<defs>
<clipPath id="clip0_17312_87730">
<rect width="20" height="20" fill="white" transform="translate(3.5 2)"/>
</clipPath>
</defs>
</svg>
