<svg width="20" height="20" viewBox="0 0 20 20" fill="none" xmlns="http://www.w3.org/2000/svg">
<path fill-rule="evenodd" clip-rule="evenodd" d="M16.9446 9.99999C16.9446 13.8353 13.8354 16.9444 10.0001 16.9444C6.1648 16.9444 3.05566 13.8353 3.05566 9.99999C3.05566 6.16467 6.1648 3.05554 10.0001 3.05554C13.8354 3.05554 16.9446 6.16467 16.9446 9.99999ZM10.6946 14.1667C10.6946 14.5502 10.3837 14.8611 10.0001 14.8611C9.61657 14.8611 9.30566 14.5502 9.30566 14.1667C9.30566 13.7831 9.61657 13.4722 10.0001 13.4722C10.3837 13.4722 10.6946 13.7831 10.6946 14.1667ZM10.0001 7.22221C9.39643 7.22221 8.88108 7.60769 8.69004 8.14808C8.56225 8.50968 8.16549 8.69922 7.80389 8.5714C7.44228 8.44359 7.25275 8.04684 7.38055 7.68523C7.76155 6.60729 8.78955 5.83332 10.0001 5.83332C11.5342 5.83332 12.7779 7.07697 12.7779 8.6111C12.7779 9.9054 11.8926 10.993 10.6946 11.3014V11.7361C10.6946 12.1196 10.3837 12.4305 10.0001 12.4305C9.61657 12.4305 9.30566 12.1196 9.30566 11.7361V10.6944C9.30566 10.3109 9.61657 9.99999 10.0001 9.99999C10.7671 9.99999 11.389 9.37818 11.389 8.6111C11.389 7.84404 10.7671 7.22221 10.0001 7.22221Z" fill="#0C395B"/>
</svg>
