<svg width="21" height="20" viewBox="0 0 21 20" fill="none" xmlns="http://www.w3.org/2000/svg">
<path d="M6.75328 14.7895L14.9956 0.67904C15.0353 0.610256 15.0563 0.532234 15.0563 0.452809C15.0563 0.373385 15.0354 0.295352 14.9957 0.226548C14.956 0.157743 14.8988 0.100589 14.83 0.0608234C14.7611 0.021058 14.683 8.14186e-05 14.6035 0L9.28919 0C9.15724 3.49325e-05 9.0276 0.0345177 8.91311 0.100029C8.79863 0.16554 8.70328 0.259804 8.63651 0.373472L0.101885 14.9909C0.0354999 15.1053 0.000405548 15.2351 0.00012378 15.3673C-0.000157987 15.4996 0.0343827 15.6295 0.100279 15.7442C0.166176 15.8588 0.26111 15.9542 0.375553 16.0206C0.489997 16.087 0.619923 16.1222 0.752293 16.1227H4.46438L2.86216 18.8683C2.79568 18.9828 2.76058 19.1128 2.7604 19.2452C2.76021 19.3776 2.79495 19.5077 2.86112 19.6225C2.92728 19.7372 3.02254 19.8325 3.1373 19.8988C3.25205 19.965 3.38227 20 3.51483 20H16.8856C17.0442 19.9994 17.1998 19.9573 17.337 19.8779C17.4742 19.7985 17.5882 19.6845 17.6674 19.5473L20.0515 15.4731C20.0912 15.4044 20.1121 15.3266 20.1123 15.2474C20.1124 15.1682 20.0917 15.0903 20.0522 15.0215C20.0128 14.9528 19.9559 14.8956 19.8874 14.8557C19.8189 14.8158 19.7411 14.7945 19.6617 14.794L6.75328 14.7895ZM9.62686 1.33545H13.0647L5.20997 14.7895H1.76757L9.62686 1.33545ZM16.6522 18.6668H4.5301L6.01448 16.1249H18.1275L16.6522 18.6668Z" fill="#F2385A"/>
</svg>
