<svg width="20" height="20" viewBox="0 0 20 20" fill="none" xmlns="http://www.w3.org/2000/svg">
<path fill-rule="evenodd" clip-rule="evenodd" d="M10.5806 4.58065C10.5806 4.25996 10.3207 4 10 4C9.67932 4 9.41935 4.25996 9.41935 4.58065V9.41935H4.58065C4.25996 9.41935 4 9.67932 4 10C4 10.3207 4.25996 10.5806 4.58065 10.5806H9.41935V15.4194C9.41935 15.74 9.67932 16 10 16C10.3207 16 10.5806 15.74 10.5806 15.4194V10.5806H15.4194C15.74 10.5806 16 10.3207 16 10C16 9.67932 15.74 9.41935 15.4194 9.41935H10.5806V4.58065Z" fill="#0C395B"/>
</svg>
